<?xml version="1.0" encoding="utf-8"?>
<!DOCTYPE svg PUBLIC "-//W3C//DTD SVG 1.0//EN" "http://www.w3.org/TR/2001/REC-SVG-20010904/DTD/svg10.dtd">
<svg version="1.0" xmlns="http://www.w3.org/2000/svg" width="233px" height="162px" viewBox="0 0 233 162" preserveAspectRatio="xMidYMid meet">
 <g fill="#eab308" stroke="#eab308" stroke-width="1">
  <path d="M60.2 159.3 c-0.7 -0.3 -1.7 -1.6 -2.3 -2.9 -0.5 -1.4 -1.9 -2.9 -3.1 -3.4 -1.3 -0.5 -1.7 -0.9 -1 -0.9 1.7 -0.1 1.5 -3.2 -0.4 -6 l-1.6 -2.3 9.1 0.7 c9.7 0.8 9.6 0.9 9.1 -4.2 -0.3 -3.7 2.7 -2.8 3.3 1 0.2 1.7 0.1 3.4 -0.4 3.5 -0.5 0.2 -0.9 1.2 -0.9 2.3 0 1.6 -0.4 1.8 -1.7 1.1 -1 -0.5 -4.4 -1.3 -7.5 -1.6 -5.2 -0.7 -5.8 -0.6 -5.8 1.1 0 2.6 1.4 4.4 4.7 6 1.5 0.7 2 1.1 1.1 0.9 -2.4 -0.7 -3.4 1.5 -1.4 3 1.8 1.3 1 2.4 -1.2 1.7z"/>
  <path d="M88.8 150.6 c-0.2 -1.9 -0.1 -4.3 0.3 -5.3 0.4 -1 0.8 -3.5 0.8 -5.5 0.1 -4.9 -2.2 -6.2 -10 -5.6 -5.3 0.4 -5.9 0.2 -5.9 -1.5 0 -1.3 0.5 -1.7 1.6 -1.3 0.9 0.3 4.1 0.6 7.3 0.6 7.4 0 9.3 1.4 10 7.6 0.6 4.5 0.8 4.9 3.6 5.2 1.6 0.2 5.6 -0.1 8.8 -0.8 6.1 -1.2 8.3 -0.7 5.6 1.3 -2.4 1.8 -3.4 5.8 -1.8 6.8 1 0.6 0.4 0.9 -1.8 0.9 -3.1 0 -3.2 0 -1.8 -2.7 2 -3.8 0.7 -4.6 -5.9 -3.8 -5.8 0.8 -7.6 2 -7.9 5.4 -0.2 3.4 -2.4 2.4 -2.9 -1.3z"/>
  <path d="M31.3 143.3 c-1 -1.5 -3.7 -4.6 -5.9 -6.9 -2.8 -2.8 -3.5 -4 -2.3 -3.7 1.7 0.5 1.8 0.3 0.9 -2.2 -0.6 -1.6 -1.8 -4.1 -2.7 -5.6 -2 -3.4 -1.1 -4.9 1.6 -2.5 1 0.9 3.3 2.1 5.2 2.6 2.8 0.8 3.6 0.7 4.6 -0.6 1.1 -1.5 1.4 -1.4 3.5 1 1.7 2 3.6 2.8 7.6 3.3 5.5 0.6 5.6 0.5 5.2 -4.4 -0.1 -1.5 0.4 -2.3 1.4 -2.3 1 0 1.6 0.9 1.6 2.5 0 4.4 3.2 6.5 10 6.5 4.5 0 6 0.4 6 1.4 0 1.1 -1.5 1.4 -6.7 1.3 l-6.8 -0.2 0 3.3 c0 4.1 -2.1 4.2 -3 0.2 -0.9 -3.9 -3.8 -5.8 -9.5 -6.2 l-4.5 -0.3 0.3 3.3 c0.3 4.1 -0.4 4.1 -2.2 -0.2 -1.5 -3.7 -4.5 -6.1 -8.8 -7.1 -3.4 -0.9 -3.5 0.2 -0.8 5.5 1.4 2.7 3 4.2 5.5 5.1 1.9 0.7 3.5 1.7 3.5 2.1 0 0.5 -0.9 0.4 -2.1 -0.2 -3.7 -2.1 -4.2 -0.4 -0.9 3.3 1.7 2 2.7 3.7 2.2 3.7 -0.6 0 -1.9 -1.2 -2.9 -2.7z"/>
  <path d="M125.9 139.5 c1.8 -0.8 3.8 -1.5 4.5 -1.4 1.5 0.1 -4.6 2.8 -6.4 2.8 -0.8 0 0 -0.6 1.9 -1.4z"/>
  <path d="M133.4 136.5 c1.1 -0.8 2.7 -1.5 3.5 -1.5 0.9 0 0.3 0.7 -1.3 1.5 -3.6 1.9 -4.7 1.9 -2.2 0z"/>
  <path d="M9.7 117.5 c-1.5 -1.4 -2.7 -3 -2.7 -3.5 0 -0.6 0.9 -0.1 2 1 1.2 1.2 2.5 1.8 3 1.5 0.6 -0.4 1 -0.4 1 -0.1 0 0.2 0.3 1.1 0.6 2 0.9 2.4 -0.8 1.9 -3.9 -0.9z"/>
  <path d="M19 114.6 c0 -2.3 -4 -6.6 -6.2 -6.6 -1.8 0 -2 0.5 -1.4 3.8 0.5 3.5 0.4 3.4 -1.2 -1.1 -1 -2.6 -2.4 -5.3 -3.2 -5.8 -1.1 -0.8 -1.2 -1.2 -0.2 -1.6 0.6 -0.2 1.2 -1.2 1.2 -2.1 0 -1.2 0.4 -1 1.3 0.7 1.6 3.1 4 4.6 6.2 3.7 1.1 -0.4 1.5 -1.3 1.2 -2.6 -0.3 -1.1 -0.1 -2 0.4 -2 0.5 0 0.9 0.7 0.9 1.5 0 0.9 1.2 2.8 2.6 4.2 2.5 2.5 2.5 2.7 0.9 3.9 -1.1 0.8 -1.6 2.1 -1.2 3.4 0.3 1.1 0.1 2 -0.4 2 -0.5 0 -0.9 -0.6 -0.9 -1.4z"/>
  <path d="M16 97.2 c0 -2.5 -2 -4.9 -4.8 -5.7 -1.7 -0.5 -2.4 -0.1 -3 1.6 -0.9 2.3 -0.9 2.3 -1.6 -0.4 -0.7 -3 -3.6 -3.7 -3.7 -0.9 -0.1 2.7 -1.7 -1.7 -1.8 -4.8 0 -2.3 0.1 -2.4 1.3 -0.7 2.4 3.1 3.6 1.9 3.7 -3.5 l0.1 -5.3 1.1 5.5 c1.1 5.2 1.4 5.5 4.2 5.5 3 0 3 0 3.3 -6.2 0.4 -7.9 2.2 -8.3 2.2 -0.5 0 6.4 1.1 8.2 5.1 8.2 5.2 0 5.9 -0.8 5.9 -6.6 0 -4.1 0.4 -5.4 1.5 -5.4 1.1 0 1.5 1.2 1.5 4.9 0 5 1 6.6 4.5 7.3 1.1 0.2 2.1 1 2.3 1.9 0.2 1.2 -0.6 1.6 -3.3 1.7 -1.9 0.1 -3.5 -0.3 -3.5 -0.9 0 -0.6 -0.6 -0.7 -1.6 -0.1 -1 0.6 -3.3 0.6 -5.8 0 -3.4 -0.8 -4.3 -0.6 -5.4 0.9 -0.7 1 -1.1 2.6 -0.8 3.6 0.2 0.9 0 1.7 -0.5 1.7 -0.5 0 -0.9 -0.8 -0.9 -1.8z"/>
  <path d="M76 62.5 l0 -22.5 9.8 0 9.7 0.1 9.5 14.4 c5.2 7.9 9.8 14.4 10.3 14.5 0.4 0 0.7 -6.5 0.7 -14.5 l0 -14.5 7 0 7 0 0 22.5 0 22.5 -9.9 0 -9.9 0 -9.3 -14.4 c-5.2 -7.9 -9.7 -14.2 -10.1 -14 -0.5 0.3 -0.8 6.8 -0.8 14.5 l0 13.9 -7 0 -7 0 0 -22.5z"/>
  <path d="M137 62.4 l0 -22.5 19 0.3 19 0.3 2.6 2.7 c2.2 2.1 2.7 3.6 2.7 7.4 0 3.9 -0.4 5.1 -2.7 7.1 -1.5 1.2 -3.5 2.3 -4.4 2.3 -1 0.1 -0.1 0.9 2 2 2 1.1 4.4 3 5.2 4.2 2.1 2.9 2.1 10.7 0 13.7 -3.1 4.3 -7 5.1 -25.9 5.1 l-17.5 0 0 -22.6z m26.3 12.7 c3.4 -1.3 4.4 -4.7 2.1 -7.2 -1.3 -1.5 -3.1 -1.9 -8.1 -1.9 l-6.3 0 0 4.3 c0 2.4 0.3 4.7 0.7 5 1 1 8.8 0.8 11.6 -0.2z m0.5 -18.3 c1.7 -1.7 1.5 -4.4 -0.4 -6.2 -1 -1.1 -3.4 -1.6 -7 -1.6 l-5.4 0 0 4.5 0 4.5 5.8 0 c3.2 0 6.3 -0.5 7 -1.2z"/>
  <path d="M194.3 83.8 c-4.4 -1.4 -8.3 -5.8 -9 -10.1 l-0.6 -3.7 7.7 0 c7 0 7.6 0.2 7.6 2 0 2.5 3.5 4 9.5 4 4.7 0 7.8 -2.1 6.9 -4.5 -0.4 -0.8 -0.7 -1.5 -0.9 -1.5 -0.2 0 -4.6 -1.1 -10 -2.5 -16.1 -4.2 -19.4 -6.7 -19.5 -14.7 0 -9.8 8.5 -14.4 25.4 -13.6 6.8 0.3 10.1 0.9 12.6 2.4 3.6 2 7.6 8.5 6.5 10.4 -0.3 0.5 -3.5 1 -6.9 1 -5.5 0 -6.6 -0.3 -7.8 -2.3 -1.3 -1.8 -2.4 -2.2 -7.2 -2.2 -4 0 -6 0.5 -6.6 1.5 -1.5 2.4 0.8 3.7 11.2 6.4 15.9 4.1 18.8 6.4 18.8 15 0 4.2 -0.4 5.3 -3.4 8.1 -2 1.8 -5.4 3.7 -8 4.4 -5.4 1.3 -21.9 1.3 -26.3 -0.1z"/>
 </g>
 <g fill="#eab308" stroke="#eab308" stroke-width="1">
  <path d="M73.7 161.4 c-0.3 -0.3 -2.1 -1 -3.9 -1.4 l-3.3 -0.8 3.3 -0.1 c6.3 -0.2 1.8 -4.1 -4.8 -4.1 -1.6 0 -3.1 -0.3 -3.3 -0.7 -0.3 -0.5 2 -0.6 5 -0.4 l5.6 0.3 -0.7 -2.8 c-0.4 -1.6 -1.4 -3.3 -2.2 -3.7 -1.2 -0.7 -1.2 -1.1 0 -3 2 -3 0.7 -8.8 -2.2 -10.3 -3.5 -1.7 -3.7 -2.3 -0.8 -3.3 2.4 -1 2.6 -1.5 2.6 -6.5 0 -6.8 -1.3 -8.2 -8.5 -9.1 -7.6 -0.9 -9.5 0.6 -8.7 7.3 0.2 2.6 1.1 5.4 1.8 6.2 0.8 1 1.1 2.9 0.8 5 -0.8 4.7 1 8.8 4.3 10.2 2.6 1.1 2.6 1.2 0.7 1.5 -2.3 0.4 -4.1 4.3 -2.1 4.3 0.8 0 0.7 0.3 -0.1 0.9 -1 0.6 -0.8 1 0.8 1.4 1.5 0.4 2.1 1.1 1.7 2.1 -0.4 0.9 0.2 2.1 1.3 2.9 1.1 0.8 1.7 1.7 1.4 2 -1 0.9 -4.4 -1.2 -4.4 -2.7 0 -0.8 -0.7 -1.9 -1.5 -2.6 -0.8 -0.7 -1.5 -2.5 -1.5 -4 0 -1.5 -0.6 -3.2 -1.3 -3.8 -1.8 -1.5 -10.5 -3.7 -11.3 -2.9 -1.6 1.6 1.6 5.6 5.8 7.1 4 1.5 4 1.5 0.8 1 l-3.5 -0.6 2.4 2.6 c3.7 4 1.5 3.1 -2.7 -1.1 -2 -2 -4.1 -5.1 -4.7 -6.7 -0.6 -1.9 -2.5 -3.9 -5 -5.3 -3.9 -2.2 -3.9 -2.3 -1.2 -2.3 2.4 0 2.7 -0.3 2.2 -2 -1 -3.1 0.9 -2.3 2.3 1 1.1 2.3 2.5 3.3 6.4 4.5 5.7 1.7 6.8 1.4 6.8 -2 0 -4 -1.7 -7.2 -4.2 -7.9 l-2.3 -0.6 2.3 -1.8 c1.8 -1.4 2.1 -2.4 1.6 -5.2 -1.3 -7.7 -2.2 -8.8 -8 -10 -2.9 -0.6 -5.9 -0.8 -6.5 -0.4 -1.5 0.9 -0.4 9.9 1.6 13.1 1.4 2.1 1.4 2.6 0 4.5 -1.1 1.7 -1.5 1.8 -1.5 0.7 0 -0.9 -1.6 -2.4 -3.5 -3.5 -3.4 -1.8 -4.6 -3.4 -2.5 -3.4 0.6 0 1 0.5 1 1.2 0 0.8 0.5 0.7 1.5 -0.3 1.3 -1.3 1.4 -2.4 0.5 -6.6 -1.3 -6.1 -2.5 -7.3 -8.1 -8 l-4.1 -0.6 0.7 4.4 c0.4 2.4 1.3 5.3 2 6.4 0.7 1.2 0.9 2.8 0.4 4 -0.4 1.1 -0.8 1.4 -0.8 0.7 -0.1 -1.5 -6.3 -5.4 -7.1 -4.4 -0.3 0.5 -1.7 -0.6 -3.3 -2.4 -2.1 -2.4 -2.3 -3.1 -1 -3 0.9 0 2.7 1.1 3.9 2.4 3.8 3.7 5.5 3 4.8 -2 -0.4 -2.4 -1.5 -5.4 -2.5 -6.9 -2.7 -3.9 -1.1 -5.3 3.6 -2.9 4.8 2.4 8.1 2.6 8.9 0.4 1.1 -2.8 -0.6 -11.6 -2.5 -13.5 -2.5 -2.5 -2.4 -3.3 0.5 -4.8 1.9 -1.1 2.8 -1.1 4.7 0 1.3 0.7 4.6 1.5 7.4 1.7 8.5 0.7 10.5 3 10.5 12.3 0 7 2.9 9.9 10 9.9 2.8 0 6.4 0.7 8 1.5 3 1.6 3.4 2.5 4.5 10.5 0.4 2.9 1.4 5.1 2.8 6.3 l2.2 1.8 -2.2 1.6 c-2.7 1.9 -3.1 7.3 -0.7 9.7 1.9 2 11.3 2.2 13.6 0.4 2.2 -1.7 2.8 -8.9 0.8 -9.7 -0.8 -0.3 -1.6 -1.2 -1.7 -1.8 -0.2 -1 0.3 -1 2.2 -0.1 2.8 1.2 3.8 3.8 3.2 7.8 -0.2 1.4 0.1 3.3 0.7 4.2 0.7 1.3 0.6 2.2 -0.5 3.5 -3 3.5 -1.8 4.8 4.3 4.8 4.6 0 6.2 -0.5 8.2 -2.4 2.2 -2.1 2.6 -2.2 2.6 -0.7 0 1.4 0.6 1.7 3.3 1.2 2.6 -0.5 2.4 -0.3 -1.1 1 -2.7 1 -4.7 2.5 -5.2 3.9 -0.9 2.4 -3.6 4 -4.5 2.6 -0.3 -0.5 0.2 -1.1 1 -1.5 2.5 -0.9 1.8 -3.7 -0.7 -3.2 -1.3 0.3 -3.9 0.7 -6 1.1 -4.5 0.7 -6.1 3.5 -2 3.5 2.4 0.1 2.3 0.2 -1.2 1.5 -2.2 0.8 -4.7 1 -5.9 0.6 -2 -0.8 -2 -0.8 0.1 -1.3 1.2 -0.4 2.2 -1.3 2.2 -2.2 0 -1.3 -1.2 -1.6 -6.5 -1.6 -5.2 0 -6.5 0.3 -6.5 1.5 0 0.9 1 2 2.3 2.5 1.2 0.5 1.7 0.9 1 0.9 -0.6 0.1 -1.8 0.3 -2.5 0.6 -0.8 0.3 -1.7 0.3 -2.1 -0.1z m13.7 -7 c1 -0.4 1.6 -1.8 1.6 -3.6 l0 -2.9 -7.2 0.3 c-6.1 0.3 -7.3 0.6 -7.6 2.1 -0.6 3.1 1.7 4.7 6.8 4.7 2.7 0 5.5 -0.3 6.4 -0.6z m-40.8 -44.5 c0.4 -0.7 0.6 -3.7 0.5 -6.8 -0.2 -7.1 -1.9 -8.9 -8.5 -9.2 -5.4 -0.3 -8.2 1.9 -7.2 5.6 0.3 1.1 0.6 3.2 0.6 4.8 0 4.3 3.2 6.7 8.9 6.7 2.8 0 5.3 -0.5 5.7 -1.1z"/>
  <path d="M115 154.1 c1.8 -1.5 2.2 -2.3 1.3 -2.9 -0.8 -0.5 0.3 -1.4 3.3 -2.5 l4.5 -1.6 -3.8 3.5 c-2.1 2 -4.7 4 -5.8 4.6 -1.4 0.7 -1.3 0.4 0.5 -1.1z"/>
  <path d="M37 147.1 c-0.8 -0.6 -1.7 -0.8 -2.1 -0.6 -0.3 0.3 -1.7 -0.7 -3 -2.2 l-2.4 -2.6 5 2.8 c5.9 3.4 6.1 3.5 4.9 3.5 -0.5 0 -1.6 -0.4 -2.4 -0.9z"/>
  <path d="M106.7 146.8 c-2.8 -1.5 -2 -2.6 2.6 -3.3 2.3 -0.4 6.6 -1.3 9.5 -2.2 2.9 -0.8 5.7 -1.3 6.4 -1.1 0.6 0.2 -2.3 1.4 -6.5 2.6 -4.2 1.2 -8.2 2.8 -9 3.6 -0.9 1 -1.9 1.1 -3 0.4z"/>
  <path d="M18 130.8 c-1.1 -1.5 -1.6 -2.8 -1.1 -2.8 0.6 0 1.4 0.6 1.8 1.3 0.4 0.7 1.9 2.1 3.2 3 2.3 1.5 2.3 1.6 0.3 1.4 -1.2 0 -3.1 -1.4 -4.2 -2.9z"/>
  <path d="M78 133 c0 -0.5 0.9 -1 2 -1 1.1 0 2 0.5 2 1 0 0.6 -0.9 1 -2 1 -1.1 0 -2 -0.4 -2 -1z"/>
  <path d="M9 106.9 c-0.8 -1 -2.2 -2 -3 -2.1 -2 -0.4 -3 -1.8 -3 -4.3 0 -1.8 0.1 -1.8 1.6 0.3 2 2.9 3.2 2.8 3.7 -0.5 l0.4 -2.8 0.2 2.8 c0 1.6 1 3.6 2.2 4.6 1.7 1.4 1.9 1.9 0.8 2.8 -1.1 0.8 -1.8 0.6 -2.9 -0.8z"/>
  <path d="M16.8 102.7 c-0.5 -1 -0.8 -3.1 -0.8 -4.5 0.1 -2.4 0.2 -2.5 1.1 -0.9 0.6 1 0.9 3 0.7 4.5 -0.2 2.3 -0.4 2.4 -1 0.9z"/>
  <path d="M7.1 95.9 c0 -0.9 -0.4 -3.1 -0.7 -4.8 -0.5 -2.4 -0.3 -3.1 0.9 -3.1 2 0 3.3 2 1.9 2.9 -0.6 0.3 -1.2 2 -1.5 3.6 -0.2 1.7 -0.5 2.3 -0.6 1.4z"/>
  <path d="M15 93.6 c0 -0.8 -0.9 -1.8 -2 -2.1 -1.1 -0.3 -2 -1 -2 -1.5 0 -0.7 3.4 -2 5.6 -2 1.6 0 2.6 2.8 1.9 5.1 -0.7 2.2 -3.5 2.6 -3.5 0.5z"/>
 </g>
 <g fill="#eab308" stroke="#eab308" stroke-width="1">
  <path d="M28.5 80.8 c-0.2 -0.7 -0.5 -2.6 -0.7 -4.3 -0.3 -2.7 -0.7 -3 -4.1 -3.3 -4.3 -0.4 -6.7 1.1 -6.7 3.9 0 2.7 -1.8 2.4 -2.2 -0.3 -0.2 -1.8 -1 -2.3 -3.3 -2.3 -2.5 0 -3.2 0.5 -4.2 3.5 l-1.2 3.5 0 -3.2 c-0.1 -3.3 -2.4 -4.7 -3.4 -2 -1 2.7 -1.9 -0.4 -1.2 -4 0.5 -2.3 1 -3.1 1.2 -2 1 3.9 4.1 1.3 4.4 -3.6 0.1 -1.6 0.3 -1.4 0.8 0.8 0.6 2.5 1.1 3 3.1 2.7 3.2 -0.3 5 -2.8 5 -6.6 0 -1.7 0.5 -3.8 1.1 -4.6 0.8 -1.1 0.9 -0.4 0.5 2.9 -0.7 6.4 0.5 8.1 5.2 7.4 4.7 -0.7 5.8 -2.1 6.6 -8.3 0.8 -6.3 3.1 -6.9 2.4 -0.6 -0.8 6.4 0.3 7.6 6.6 7.6 6.7 0 8.6 -1.8 8.6 -8.3 0 -3.7 0.4 -4.7 1.6 -4.7 1.4 0 1.6 1 1.2 6.2 -0.6 7.9 -3.4 10.8 -10.8 10.8 -5.6 0 -8 1.8 -8 6 0 3.1 -1.7 5 -2.5 2.8z"/>
  <path d="M8.1 61.8 c-0.1 -3.4 -1.4 -3.6 -3.5 -0.6 -1.5 2.1 -1.6 2.1 -1.6 0.3 0 -1.9 2 -5.9 2 -4.2 0 1.9 3.5 -1.4 4.6 -4.5 1 -2.6 1.3 -2.9 1.3 -1 0.1 1.5 0.7 2.2 2.1 2.2 1.1 0 2 0.5 2 1 0 0.6 -0.6 1 -1.3 1 -1.9 0 -4.4 3 -5 6 -0.4 2.5 -0.4 2.4 -0.6 -0.2z"/>
 </g>
 <g fill="#ffc200">
  <path d="M16.4 58.8 c0.1 -2 -0.4 -2.3 -3.3 -2.4 -4.2 0 -4.6 -0.8 -2.7 -6 0.8 -2.1 1.5 -3.4 1.5 -2.7 0.1 0.6 -0.4 2.4 -0.9 3.8 -0.9 2.5 -0.8 2.6 1.7 2.3 3.2 -0.4 5.9 -4 6.8 -9 0.5 -3.1 0.3 -3.8 -1 -3.8 -0.9 0 -2.6 1 -3.9 2.3 -1.3 1.3 -2.8 2.1 -3.4 1.9 -0.5 -0.1 -1.7 0.7 -2.6 2 -0.9 1.2 -1.6 1.8 -1.6 1.2 0 -0.6 1.8 -2.9 4 -5.2 2.2 -2.2 4 -3.6 4 -3.1 0 1.5 5.8 -1.9 7 -4 0.5 -1.1 1.4 -3.1 2 -4.5 1.3 -3.5 -0.9 -3.5 -4.1 -0.1 -3.2 3.3 -4.6 3.2 -1.9 -0.2 1.1 -1.5 2.9 -2.8 3.8 -2.9 1.6 -0.3 5 -3.8 10.1 -10.4 1.3 -1.7 2.6 -2.9 2.8 -2.6 0.9 0.8 10 -4.2 10.6 -5.8 0.3 -0.8 1.6 -2 2.9 -2.7 2.3 -1.2 2.3 -1.1 -0.2 1.6 l-2.5 2.7 3.5 -0.6 3.5 -0.6 -4 1.5 c-4.2 1.6 -6.5 3.9 -6.5 6.3 0 1.6 4.2 1.3 9.2 -0.7 3 -1.1 4.9 -5.8 2.9 -7 -0.7 -0.5 -0.3 -1.2 1.4 -1.9 1.4 -0.6 2.5 -1.8 2.5 -2.6 0 -1.6 3.8 -4.1 4.8 -3.2 0.3 0.4 -0.3 1.2 -1.3 2 -3.1 2.2 -1 3.4 4.5 2.5 6.2 -1 7.2 -1.6 6.5 -3.9 -0.7 -2.2 1.6 -3.3 4.7 -2.1 l2.2 0.8 -2.2 0.5 c-1.2 0.4 -2.2 1.3 -2.2 2.2 0 1.3 1.2 1.6 6.5 1.6 5.8 0 6.5 -0.2 6.5 -2 0 -1.4 -0.7 -2 -2.2 -2.1 l-2.3 0 2.3 -1 c2.6 -1 7.4 0.8 5.4 2 -2.1 1.3 0.4 2.9 5.8 3.9 6.1 1.2 8.3 0.2 5 -2.1 -1.3 -0.9 -1.7 -1.8 -1.1 -2.1 1.1 -0.7 5.1 2.7 5.1 4.3 0 0.5 1.9 1.6 4.3 2.5 3.5 1.3 3.7 1.5 1 1 -2.5 -0.4 -3.3 -0.2 -3.3 0.9 0 3.3 3.8 5.7 14.4 9.2 11 3.6 20.2 8.1 22.7 11.2 1 1.3 0.6 1.2 -1.6 -0.4 -10.5 -7.2 -37.2 -15.3 -47 -14.2 -2.8 0.4 -3 0.8 -3.5 5.1 -0.3 2.7 -1.1 5.3 -1.8 6 -0.6 0.6 -4.4 1.4 -8.4 1.7 -4 0.4 -7.8 1 -8.5 1.4 -0.6 0.4 -1.5 2.9 -1.8 5.5 -1.1 8.2 -1.5 9.1 -4.5 10.7 -1.6 0.8 -5.2 1.5 -8 1.5 -4.1 0 -5.6 0.5 -7.5 2.5 -1.4 1.3 -2.5 3.1 -2.5 4 0 0.9 -0.7 2.3 -1.5 3.2 -1.4 1.4 -1.6 1.2 -1.3 -1.9 0.3 -4.9 -0.7 -5.8 -6.3 -5.8 -5.6 0 -8.9 2.4 -8.9 6.6 0 3.3 -1.6 2.3 -2.3 -1.6 -0.7 -3.3 -2.3 -3.7 -7.5 -1.9 -2.2 0.7 -3.3 1.9 -3.7 4 -0.8 3.4 -2.2 3.9 -2.1 0.7z m13.1 -9.8 c0.7 -0.6 1.9 -3.4 2.5 -6.2 1.3 -6.2 0.4 -7.2 -4.9 -5.4 -3.9 1.4 -5.5 3.8 -6.7 10 l-0.7 3.9 4.2 -0.6 c2.3 -0.3 4.8 -1 5.6 -1.7z m12.1 -1 c3.6 0 6.5 -3.2 7.4 -8 1.2 -6.6 0.6 -7.3 -5.3 -6.7 -6.2 0.8 -8.4 2.7 -9.3 8.3 -0.8 5.8 0 7.8 2.9 7 1.2 -0.3 3.2 -0.6 4.3 -0.6z m25.7 -3.8 c1.4 -1.2 1.7 -2.8 1.5 -7.1 l-0.3 -5.6 -6 -0.3 c-7.7 -0.4 -9.5 0.9 -10.5 7.4 -1.1 7.1 0.5 8.7 7.9 7.8 3.1 -0.3 6.4 -1.3 7.4 -2.2z m-35.5 -10.8 c2.7 -1.7 5.8 -8.3 4.5 -9.4 -1.7 -1.7 -8.4 2.2 -10.3 6.1 -1.1 2.1 -2 4.3 -2 5 0 1.4 4.5 0.4 7.8 -1.7z m16.9 -4 c2.5 -1.6 4.2 -7.9 2.5 -9.6 -0.7 -0.7 -2.6 -0.5 -6.2 0.7 -4.3 1.4 -5.4 2.3 -6.7 5.2 -2.1 5.2 -1.2 6.6 4 5.8 2.3 -0.4 5.2 -1.3 6.4 -2.1z m19.7 -2.3 c1.5 -1.2 2.6 -6.8 1.9 -8.8 -0.7 -1.7 -9 -1.7 -12.3 0 -2.6 1.3 -4.7 6.5 -3.6 9.3 0.5 1.4 1.6 1.6 6.7 1.1 3.3 -0.3 6.6 -1 7.3 -1.6z m19.7 -0.1 c1.4 -0.8 1.9 -2.1 1.9 -5 0 -2.9 -0.5 -4.2 -1.9 -5 -3.1 -1.6 -11.7 -1.2 -13.5 0.6 -2.2 2.1 -2.1 8 0.2 9.3 2.2 1.4 10.8 1.4 13.3 0.1z m-53.1 -5 c3.7 -1.9 6 -4.5 6 -7 0 -2.3 -9.2 3.7 -11.1 7.2 -1.3 2.4 0.2 2.3 5.1 -0.2z m31.5 -7 c2.9 0 4.3 -1.2 5.1 -4.4 l0.7 -2.9 -6.3 0.5 c-6.6 0.5 -9 2.1 -9 6.1 0 1.7 0.5 1.9 3.8 1.3 2 -0.3 4.6 -0.6 5.7 -0.6z m39.7 -1.5 c-0.6 -3.4 -2.9 -4.8 -8.5 -5.3 -6.1 -0.5 -7.1 0.3 -5.4 3.9 0.9 1.7 2.4 2.6 5.2 3 6.8 1.1 9 0.7 8.7 -1.6z m-17.2 -2.5 c0 -3.4 -2.1 -4.3 -9 -3.8 -4.6 0.3 -6.8 2.3 -5.7 5.2 0.5 1.3 2.1 1.6 7.7 1.6 l7 0 0 -3z"/>
  <path d="M129.6 17.4 c-1.1 -0.7 -1.8 -1.6 -1.5 -1.8 0.2 -0.2 1.3 0.2 2.3 1 1.1 0.7 1.8 1.6 1.5 1.8 -0.2 0.2 -1.3 -0.2 -2.3 -1z"/>
  <path d="M117.6 12.6 c-2 -0.9 -2.5 -1.5 -1.5 -1.9 1.1 -0.4 0.8 -1.1 -1.1 -2.7 -2.1 -1.8 -2.2 -2 -0.3 -1.1 2.8 1.4 8.5 7.1 7 7 -0.7 0 -2.5 -0.6 -4.1 -1.3z"/>
 </g>
 <g fill="#a2a2a2">
 </g>
 <g fill="#fdfdfd">
  <path d="M89.8 110.3 l-0.3 -13.8 -7.2 -0.3 c-6.5 -0.3 -7.3 -0.5 -7.3 -2.2 0 -1.9 0.8 -2 17 -2 16.6 0 17 0.1 16 2 -0.8 1.5 -2.3 2 -6.8 2.2 l-5.7 0.3 -0.3 13.8 -0.3 13.7 -2.4 0 -2.4 0 -0.3 -13.7z"/>
  <path d="M115.4 122.6 c-1.7 -0.8 -3.4 -2.1 -3.8 -3.1 -0.3 -0.9 -0.6 -6.3 -0.6 -12 0 -14.9 0 -14.9 17.5 -15.3 16.2 -0.4 19 0.3 20.6 5.7 0.6 2 0.9 5.6 0.7 8.1 l-0.3 4.5 -8.2 0.3 c-8.3 0.3 -12.8 -0.9 -12 -3.1 0.2 -0.7 3.2 -1.4 7.3 -1.7 6.6 -0.5 6.9 -0.6 7.2 -3.1 0.6 -4.8 -1.8 -5.9 -13.2 -5.9 -13.7 0 -13.8 0.1 -13.4 11.5 l0.3 9 15.8 0.3 15.8 0.3 -1.8 2.9 -1.7 3 -13.6 0 c-9 -0.1 -14.5 -0.5 -16.6 -1.4z"/>
  <path d="M161.4 123 c-4.2 -1.7 -5.4 -4.8 -5.4 -14.5 0 -4.9 0.3 -10 0.6 -11.3 1.2 -4.2 5.1 -5.2 20.4 -5.2 l14 0 -1.6 2.5 c-1.6 2.4 -2 2.5 -12.3 2.5 -14.2 0 -15.1 0.6 -15.1 10.4 0 10.6 -0.1 10.5 16.5 10.8 l14 0.3 0 2.5 0 2.5 -14.5 0.2 c-8 0.1 -15.5 -0.2 -16.6 -0.7z"/>
  <path d="M198 108 l0 -16 2.5 0 2.5 0 0 16 0 16 -2.5 0 -2.5 0 0 -16z"/>
  <path d="M228 117 l0 -6.9 -6.2 -0.3 c-5.5 -0.3 -6.3 -0.5 -6.3 -2.3 0 -1.8 0.8 -2 6.3 -2.3 l6.2 -0.3 0 -6.4 c0 -6.3 0.1 -6.5 2.5 -6.5 l2.5 0 0 16 0 16 -2.5 0 c-2.4 0 -2.5 -0.2 -2.5 -7z"/>
  <path d="M120.3 109.4 c-0.3 -0.8 0.2 -2.3 1.1 -3.2 1.5 -1.5 1.7 -1.5 3.2 0 2.1 2.1 1.1 4.8 -1.6 4.8 -1.1 0 -2.3 -0.7 -2.7 -1.6z"/>
 </g>
</svg>